<svg xmlns="http://www.w3.org/2000/svg" width="1000" height="800" viewBox="0 0 1000 800"><circle cx="381.7" cy="186.2" r="0.55" fill="white" opacity="0.80"/><circle cx="577.5" cy="551.0" r="0.8" fill="white" opacity="0.48"/><circle cx="730.2" cy="460.7" r="0.8" fill="white" opacity="0.65"/><circle cx="837.3" cy="351.9" r="0.55" fill="white" opacity="0.34"/><circle cx="721.8" cy="136.0" r="0.8" fill="white" opacity="0.62"/><circle cx="62.1" cy="625.7" r="0.55" fill="white" opacity="0.77"/><circle cx="839.0" cy="174.4" r="0.8" fill="white" opacity="0.69"/><circle cx="127.3" cy="534.9" r="0.55" fill="white" opacity="0.80"/><circle cx="687.7" cy="781.1" r="0.55" fill="white" opacity="0.44"/><circle cx="619.2" cy="485.9" r="0.55" fill="white" opacity="0.78"/><circle cx="844.4" cy="242.3" r="0.55" fill="white" opacity="0.65"/><circle cx="407.7" cy="529.7" r="0.8" fill="white" opacity="0.49"/><circle cx="24.5" cy="110.1" r="0.8" fill="white" opacity="0.69"/><circle cx="426.1" cy="594.1" r="0.8" fill="white" opacity="0.78"/><circle cx="654.2" cy="258.6" r="0.55" fill="white" opacity="0.29"/><circle cx="42.4" cy="687.8" r="1.1" fill="white" opacity="0.70"/><circle cx="111.7" cy="527.4" r="0.55" fill="white" opacity="0.78"/><circle cx="654.5" cy="598.2" r="0.8" fill="white" opacity="0.50"/><circle cx="846.3" cy="766.6" r="0.55" fill="white" opacity="0.51"/><circle cx="732.0" cy="542.9" r="0.55" fill="white" opacity="0.52"/><circle cx="964.8" cy="222.1" r="0.55" fill="white" opacity="0.66"/><circle cx="278.3" cy="715.6" r="0.55" fill="white" opacity="0.80"/><circle cx="380.5" cy="705.8" r="0.8" fill="white" opacity="0.69"/><circle cx="216.0" cy="133.4" r="0.55" fill="white" opacity="0.36"/><circle cx="665.6" cy="54.1" r="0.55" fill="white" opacity="0.59"/><circle cx="157.2" cy="264.3" r="0.55" fill="white" opacity="0.66"/><circle cx="120.8" cy="795.0" r="0.8" fill="white" opacity="0.68"/><circle cx="552.2" cy="398.3" r="1.5" fill="white" opacity="0.79"/><path d="M548.2 398.3h8 M552.2 394.3v8" stroke="white" stroke-width=".5" opacity=".25"/><circle cx="820.0" cy="26.7" r="0.8" fill="white" opacity="0.82"/><circle cx="637.5" cy="410.3" r="0.8" fill="white" opacity="0.36"/><circle cx="726.3" cy="625.3" r="0.55" fill="white" opacity="0.56"/><circle cx="594.7" cy="282.5" r="0.8" fill="white" opacity="0.80"/><circle cx="903.8" cy="247.4" r="0.55" fill="white" opacity="0.76"/><circle cx="611.3" cy="661.6" r="1.1" fill="white" opacity="0.42"/><circle cx="586.9" cy="243.8" r="0.8" fill="white" opacity="0.66"/><circle cx="240.6" cy="400.1" r="0.8" fill="white" opacity="0.39"/><circle cx="184.4" cy="379.5" r="0.55" fill="white" opacity="0.55"/><circle cx="937.3" cy="658.8" r="0.55" fill="white" opacity="0.75"/><circle cx="715.2" cy="565.3" r="0.55" fill="white" opacity="0.71"/><circle cx="197.3" cy="640.6" r="0.55" fill="white" opacity="0.47"/><circle cx="174.2" cy="691.9" r="0.55" fill="white" opacity="0.77"/><circle cx="513.7" cy="120.9" r="0.8" fill="white" opacity="0.57"/><circle cx="29.9" cy="656.9" r="0.55" fill="white" opacity="0.26"/><circle cx="764.8" cy="580.3" r="0.55" fill="white" opacity="0.36"/><circle cx="526.8" cy="468.6" r="0.8" fill="white" opacity="0.54"/><circle cx="567.4" cy="575.3" r="0.55" fill="white" opacity="0.36"/><circle cx="484.5" cy="601.8" r="1.1" fill="white" opacity="0.76"/><circle cx="439.3" cy="569.7" r="0.55" fill="white" opacity="0.48"/><circle cx="69.4" cy="666.2" r="1.5" fill="white" opacity="0.65"/><path d="M65.4 666.2h8 M69.4 662.2v8" stroke="white" stroke-width=".5" opacity=".25"/><circle cx="750.9" cy="298.6" r="0.8" fill="white" opacity="0.30"/><circle cx="371.4" cy="281.5" r="1.1" fill="white" opacity="0.35"/><circle cx="161.2" cy="74.0" r="1.1" fill="white" opacity="0.44"/><circle cx="900.7" cy="251.5" r="1.1" fill="white" opacity="0.37"/><circle cx="900.1" cy="776.1" r="1.1" fill="white" opacity="0.67"/><circle cx="894.0" cy="729.0" r="1.1" fill="white" opacity="0.42"/><circle cx="847.8" cy="622.1" r="0.55" fill="white" opacity="0.35"/><circle cx="897.2" cy="378.1" r="0.8" fill="white" opacity="0.78"/><circle cx="483.9" cy="203.5" r="0.8" fill="white" opacity="0.57"/><circle cx="273.8" cy="552.5" r="1.1" fill="white" opacity="0.40"/><circle cx="810.9" cy="601.4" r="0.8" fill="white" opacity="0.37"/><circle cx="663.9" cy="226.4" r="0.55" fill="white" opacity="0.76"/><circle cx="272.0" cy="76.4" r="1.1" fill="white" opacity="0.85"/><circle cx="306.5" cy="324.5" r="0.8" fill="white" opacity="0.70"/><circle cx="15.1" cy="517.5" r="0.55" fill="white" opacity="0.81"/><circle cx="415.2" cy="752.7" r="0.8" fill="white" opacity="0.64"/><circle cx="40.7" cy="163.9" r="0.55" fill="white" opacity="0.47"/><circle cx="175.0" cy="337.3" r="0.55" fill="white" opacity="0.59"/><circle cx="960.2" cy="683.6" r="0.8" fill="white" opacity="0.84"/><circle cx="727.2" cy="506.6" r="0.8" fill="white" opacity="0.30"/><circle cx="890.8" cy="714.6" r="1.1" fill="white" opacity="0.66"/><circle cx="810.8" cy="764.1" r="1.5" fill="white" opacity="0.71"/><path d="M806.8 764.1h8 M810.8 760.1v8" stroke="white" stroke-width=".5" opacity=".25"/><circle cx="19.2" cy="755.2" r="0.8" fill="white" opacity="0.52"/><circle cx="431.4" cy="217.7" r="0.55" fill="white" opacity="0.62"/><circle cx="616.8" cy="71.6" r="1.1" fill="white" opacity="0.79"/><circle cx="862.5" cy="429.7" r="0.55" fill="white" opacity="0.53"/><circle cx="371.4" cy="761.7" r="1.1" fill="white" opacity="0.79"/><circle cx="519.7" cy="408.7" r="0.8" fill="white" opacity="0.42"/><circle cx="186.0" cy="785.0" r="0.55" fill="white" opacity="0.41"/><circle cx="492.4" cy="73.1" r="0.8" fill="white" opacity="0.35"/><circle cx="827.2" cy="68.0" r="1.1" fill="white" opacity="0.41"/><circle cx="786.3" cy="638.8" r="1.1" fill="white" opacity="0.35"/><circle cx="981.8" cy="120.5" r="0.55" fill="white" opacity="0.25"/><circle cx="494.0" cy="68.1" r="0.8" fill="white" opacity="0.81"/><circle cx="780.0" cy="517.3" r="0.55" fill="white" opacity="0.84"/><circle cx="365.6" cy="756.9" r="0.55" fill="white" opacity="0.43"/><circle cx="945.0" cy="596.1" r="0.55" fill="white" opacity="0.52"/><circle cx="542.1" cy="203.0" r="0.55" fill="white" opacity="0.30"/><circle cx="509.4" cy="333.2" r="0.55" fill="white" opacity="0.54"/><circle cx="347.5" cy="309.7" r="0.8" fill="white" opacity="0.34"/><circle cx="97.9" cy="357.9" r="0.55" fill="white" opacity="0.54"/><circle cx="857.6" cy="754.3" r="1.1" fill="white" opacity="0.80"/><circle cx="232.3" cy="277.9" r="0.55" fill="white" opacity="0.42"/><circle cx="262.1" cy="193.4" r="0.55" fill="white" opacity="0.81"/><circle cx="515.1" cy="717.4" r="0.8" fill="white" opacity="0.70"/><circle cx="669.0" cy="473.5" r="1.1" fill="white" opacity="0.61"/><circle cx="503.5" cy="185.2" r="0.55" fill="white" opacity="0.51"/><circle cx="406.8" cy="106.7" r="1.1" fill="white" opacity="0.26"/><circle cx="441.7" cy="198.8" r="0.55" fill="white" opacity="0.75"/><circle cx="961.0" cy="319.4" r="0.8" fill="white" opacity="0.79"/><circle cx="291.5" cy="318.0" r="0.55" fill="white" opacity="0.75"/><circle cx="304.4" cy="714.9" r="0.55" fill="white" opacity="0.66"/><circle cx="630.1" cy="30.0" r="0.55" fill="white" opacity="0.75"/><circle cx="402.5" cy="48.4" r="0.8" fill="white" opacity="0.57"/><circle cx="469.7" cy="337.3" r="1.1" fill="white" opacity="0.65"/><circle cx="444.5" cy="357.8" r="0.8" fill="white" opacity="0.39"/><circle cx="482.1" cy="606.7" r="0.55" fill="white" opacity="0.34"/><circle cx="53.5" cy="534.8" r="1.1" fill="white" opacity="0.65"/><circle cx="619.2" cy="28.2" r="0.55" fill="white" opacity="0.53"/><circle cx="337.8" cy="201.8" r="0.55" fill="white" opacity="0.39"/><circle cx="72.6" cy="456.5" r="0.55" fill="white" opacity="0.51"/><circle cx="402.2" cy="646.4" r="0.8" fill="white" opacity="0.53"/><circle cx="9.1" cy="568.1" r="0.8" fill="white" opacity="0.63"/><circle cx="987.6" cy="393.5" r="0.55" fill="white" opacity="0.57"/><circle cx="107.1" cy="500.5" r="0.55" fill="white" opacity="0.65"/><circle cx="611.2" cy="546.7" r="0.55" fill="white" opacity="0.68"/><circle cx="940.4" cy="785.6" r="0.8" fill="white" opacity="0.34"/><circle cx="772.6" cy="143.7" r="1.5" fill="white" opacity="0.27"/><path d="M768.6 143.7h8 M772.6 139.7v8" stroke="white" stroke-width=".5" opacity=".25"/><circle cx="19.6" cy="322.1" r="0.55" fill="white" opacity="0.82"/><circle cx="927.7" cy="209.2" r="1.1" fill="white" opacity="0.46"/><circle cx="816.2" cy="101.9" r="1.1" fill="white" opacity="0.52"/><circle cx="237.6" cy="356.3" r="0.55" fill="white" opacity="0.27"/><circle cx="474.9" cy="476.4" r="1.5" fill="white" opacity="0.56"/><path d="M470.9 476.4h8 M474.9 472.4v8" stroke="white" stroke-width=".5" opacity=".25"/><circle cx="337.0" cy="210.6" r="0.55" fill="white" opacity="0.80"/><circle cx="698.3" cy="212.9" r="0.8" fill="white" opacity="0.66"/><circle cx="638.3" cy="362.0" r="1.1" fill="white" opacity="0.81"/><circle cx="756.7" cy="150.4" r="0.55" fill="white" opacity="0.64"/><circle cx="949.0" cy="404.1" r="0.8" fill="white" opacity="0.29"/><circle cx="67.0" cy="216.2" r="0.8" fill="white" opacity="0.38"/><circle cx="753.4" cy="513.5" r="0.55" fill="white" opacity="0.56"/><circle cx="832.4" cy="27.8" r="0.8" fill="white" opacity="0.70"/><circle cx="963.7" cy="266.9" r="0.8" fill="white" opacity="0.73"/><circle cx="304.3" cy="618.5" r="0.8" fill="white" opacity="0.82"/><circle cx="415.0" cy="89.7" r="0.8" fill="white" opacity="0.66"/><circle cx="911.4" cy="603.5" r="0.8" fill="white" opacity="0.76"/><circle cx="848.5" cy="489.0" r="0.55" fill="white" opacity="0.26"/><circle cx="585.7" cy="13.6" r="0.55" fill="white" opacity="0.84"/><circle cx="259.8" cy="550.1" r="0.8" fill="white" opacity="0.44"/><circle cx="601.1" cy="706.2" r="0.8" fill="white" opacity="0.45"/><circle cx="991.7" cy="535.6" r="0.55" fill="white" opacity="0.73"/><circle cx="782.0" cy="699.7" r="1.1" fill="white" opacity="0.73"/><circle cx="391.6" cy="603.2" r="0.8" fill="white" opacity="0.74"/><circle cx="216.8" cy="786.2" r="0.8" fill="white" opacity="0.80"/><circle cx="516.9" cy="622.8" r="0.8" fill="white" opacity="0.42"/><circle cx="490.6" cy="655.3" r="0.55" fill="white" opacity="0.80"/><circle cx="730.3" cy="628.7" r="0.8" fill="white" opacity="0.68"/><circle cx="634.6" cy="332.8" r="0.55" fill="white" opacity="0.59"/><circle cx="689.2" cy="443.5" r="0.55" fill="white" opacity="0.58"/><circle cx="107.1" cy="514.5" r="0.55" fill="white" opacity="0.33"/><circle cx="82.0" cy="759.4" r="1.1" fill="white" opacity="0.63"/><circle cx="935.0" cy="169.3" r="0.8" fill="white" opacity="0.53"/><circle cx="110.1" cy="461.4" r="0.55" fill="white" opacity="0.42"/><circle cx="144.8" cy="198.0" r="1.1" fill="white" opacity="0.55"/><circle cx="549.2" cy="117.7" r="0.55" fill="white" opacity="0.31"/><circle cx="700.1" cy="462.4" r="0.8" fill="white" opacity="0.60"/><circle cx="252.6" cy="319.4" r="0.55" fill="white" opacity="0.81"/><circle cx="701.7" cy="664.0" r="0.8" fill="white" opacity="0.83"/><circle cx="763.0" cy="3.3" r="0.55" fill="white" opacity="0.27"/><circle cx="891.1" cy="169.8" r="0.8" fill="white" opacity="0.60"/><circle cx="225.7" cy="222.1" r="1.1" fill="white" opacity="0.36"/><circle cx="829.7" cy="375.2" r="0.8" fill="white" opacity="0.49"/><circle cx="677.4" cy="562.3" r="0.55" fill="white" opacity="0.43"/><circle cx="430.0" cy="594.9" r="0.55" fill="white" opacity="0.37"/><circle cx="351.6" cy="556.5" r="0.8" fill="white" opacity="0.38"/><circle cx="876.4" cy="459.4" r="1.1" fill="white" opacity="0.48"/><circle cx="947.8" cy="464.3" r="0.55" fill="white" opacity="0.34"/><circle cx="798.7" cy="141.4" r="1.1" fill="white" opacity="0.74"/><circle cx="134.5" cy="580.9" r="0.8" fill="white" opacity="0.31"/><circle cx="757.7" cy="757.1" r="0.55" fill="white" opacity="0.57"/><circle cx="411.0" cy="192.5" r="0.55" fill="white" opacity="0.65"/><circle cx="964.7" cy="103.8" r="0.55" fill="white" opacity="0.57"/><circle cx="266.7" cy="692.4" r="0.55" fill="white" opacity="0.26"/><circle cx="311.4" cy="328.9" r="0.55" fill="white" opacity="0.50"/><circle cx="286.2" cy="767.8" r="0.55" fill="white" opacity="0.38"/><circle cx="817.9" cy="162.9" r="0.55" fill="white" opacity="0.48"/><circle cx="631.4" cy="657.5" r="0.8" fill="white" opacity="0.36"/><circle cx="929.4" cy="142.0" r="1.1" fill="white" opacity="0.77"/><circle cx="117.7" cy="303.6" r="0.55" fill="white" opacity="0.53"/><circle cx="780.6" cy="640.5" r="0.8" fill="white" opacity="0.27"/><circle cx="290.9" cy="735.9" r="0.8" fill="white" opacity="0.71"/><circle cx="176.0" cy="126.8" r="0.8" fill="white" opacity="0.62"/><circle cx="126.9" cy="697.5" r="0.8" fill="white" opacity="0.81"/><circle cx="903.9" cy="320.5" r="0.55" fill="white" opacity="0.75"/><circle cx="497.5" cy="479.7" r="0.8" fill="white" opacity="0.84"/><circle cx="514.7" cy="367.2" r="1.1" fill="white" opacity="0.30"/><circle cx="438.8" cy="177.2" r="0.8" fill="white" opacity="0.74"/><circle cx="426.4" cy="167.8" r="0.55" fill="white" opacity="0.79"/><circle cx="584.9" cy="745.7" r="0.55" fill="white" opacity="0.42"/><circle cx="181.7" cy="509.3" r="0.8" fill="white" opacity="0.76"/><circle cx="588.6" cy="268.4" r="0.55" fill="white" opacity="0.72"/><circle cx="945.6" cy="263.5" r="0.55" fill="white" opacity="0.57"/><circle cx="376.1" cy="594.2" r="0.8" fill="white" opacity="0.54"/><circle cx="378.3" cy="202.1" r="1.1" fill="white" opacity="0.82"/><circle cx="211.5" cy="301.5" r="0.8" fill="white" opacity="0.46"/><circle cx="441.9" cy="451.0" r="0.55" fill="white" opacity="0.48"/><circle cx="717.0" cy="748.7" r="0.55" fill="white" opacity="0.78"/><circle cx="89.5" cy="525.5" r="0.55" fill="white" opacity="0.58"/><circle cx="230.4" cy="645.2" r="0.55" fill="white" opacity="0.56"/><circle cx="958.1" cy="425.0" r="0.55" fill="white" opacity="0.64"/><circle cx="792.3" cy="547.3" r="0.55" fill="white" opacity="0.37"/><circle cx="780.9" cy="402.8" r="1.1" fill="white" opacity="0.45"/><circle cx="307.9" cy="373.0" r="1.5" fill="white" opacity="0.72"/><path d="M303.9 373.0h8 M307.9 369.0v8" stroke="white" stroke-width=".5" opacity=".25"/><circle cx="295.7" cy="552.8" r="1.1" fill="white" opacity="0.28"/><circle cx="745.0" cy="379.9" r="1.1" fill="white" opacity="0.70"/><circle cx="366.8" cy="67.5" r="0.55" fill="white" opacity="0.48"/><circle cx="205.6" cy="549.2" r="1.1" fill="white" opacity="0.52"/><circle cx="118.1" cy="447.2" r="0.55" fill="white" opacity="0.28"/><circle cx="99.6" cy="311.7" r="0.55" fill="white" opacity="0.33"/><circle cx="943.1" cy="426.8" r="0.55" fill="white" opacity="0.27"/><circle cx="287.7" cy="259.8" r="1.1" fill="white" opacity="0.36"/><circle cx="917.7" cy="402.1" r="1.1" fill="white" opacity="0.58"/><circle cx="956.8" cy="765.2" r="0.8" fill="white" opacity="0.45"/><circle cx="298.5" cy="132.9" r="0.55" fill="white" opacity="0.62"/><circle cx="417.4" cy="431.8" r="1.1" fill="white" opacity="0.69"/><circle cx="931.2" cy="610.5" r="0.55" fill="white" opacity="0.28"/><circle cx="698.8" cy="119.5" r="0.8" fill="white" opacity="0.30"/><circle cx="578.9" cy="422.1" r="0.8" fill="white" opacity="0.74"/><circle cx="698.4" cy="178.4" r="0.8" fill="white" opacity="0.50"/><circle cx="387.7" cy="183.2" r="0.55" fill="white" opacity="0.62"/><circle cx="64.8" cy="343.7" r="0.8" fill="white" opacity="0.53"/><circle cx="690.4" cy="642.1" r="0.8" fill="white" opacity="0.35"/><circle cx="178.9" cy="743.9" r="0.8" fill="white" opacity="0.54"/><circle cx="220.9" cy="503.3" r="0.55" fill="white" opacity="0.59"/><circle cx="553.2" cy="726.9" r="0.8" fill="white" opacity="0.80"/><circle cx="871.1" cy="75.8" r="0.8" fill="white" opacity="0.41"/><circle cx="342.4" cy="411.1" r="0.8" fill="white" opacity="0.60"/><circle cx="438.7" cy="88.4" r="1.5" fill="white" opacity="0.27"/><path d="M434.7 88.4h8 M438.7 84.4v8" stroke="white" stroke-width=".5" opacity=".25"/><circle cx="943.8" cy="787.1" r="0.8" fill="white" opacity="0.38"/><circle cx="700.5" cy="268.0" r="0.55" fill="white" opacity="0.76"/><circle cx="724.1" cy="22.2" r="1.1" fill="white" opacity="0.49"/><circle cx="299.8" cy="311.0" r="0.55" fill="white" opacity="0.51"/></svg>
